<?xml version="1.0" encoding="UTF-8"?>
<svg width="191px" height="50px" viewBox="0 0 191 50" version="1.1" xmlns="http://www.w3.org/2000/svg" xmlns:xlink="http://www.w3.org/1999/xlink">
    <!-- Generator: Sketch 54.1 (76490) - https://sketchapp.com -->
    <title>Logo</title>
    <desc>Created with Sketch.</desc>
    <g id="Pages" stroke="none" stroke-width="1" fill="none" fill-rule="evenodd">
        <g id="Homepage" transform="translate(-176.000000, -52.000000)" fill="#FFFFFF">
            <g id="Header">
                <g id="Logo" transform="translate(176.000000, 52.000000)">
                    <path d="M62.6908824,28.7647954 L62.6908824,38.4858824 L58.1202941,38.4858824 L58.1202941,8.68323529 L62.6908824,8.68323529 L62.6908824,26.8759619 L70.2467647,17.5613529 L76.0752941,17.5613529 L67.4226471,27.5925294 L76.6767647,38.4860588 L70.7620588,38.4860588 L62.6908824,28.7647954 Z M91.9139706,31.9889412 L91.9139706,30.4207059 C89.7183824,29.5245294 87.4783824,29.211 86.3133824,29.211 C82.4598529,29.211 81.7430882,31.1374706 81.7430882,32.3024706 C81.7430882,33.6468824 82.8630882,34.7221765 85.3722059,34.7221765 C87.1645588,34.7221765 90.5698529,34.1845294 91.9139706,31.9889412 Z M78.1136765,21.3251176 C80.4883824,17.9645294 84.2522059,17.1130588 86.9854412,17.1130588 C92.9445588,17.1130588 96.5292647,20.1601176 96.5292647,25.9848235 L96.5292647,38.4857059 L91.9586765,38.4857059 L91.9586765,36.2007059 C90.3010294,38.3065882 87.5677941,38.9339412 85.1930882,38.9339412 C80.3989706,38.9339412 77.2175,36.4695294 77.2175,32.3024706 C77.2175,28.6733529 79.6369118,25.5815882 86.2236765,25.5815882 C88.0160294,25.5815882 89.9425,25.9848235 91.9586765,26.9257059 L91.9586765,25.9848235 C91.9586765,23.2515882 90.0322059,21.2801176 86.6716176,21.2801176 C84.5210294,21.2801176 82.1013235,22.3554118 80.7572059,24.1477647 L78.1136765,21.3251176 Z M101.483824,38.4858824 L101.483824,8.68323529 L106.098824,8.68323529 L106.098824,38.4858824 L101.483824,38.4858824 Z M126.602176,26.2984412 C126.154235,23.0275588 123.779235,21.1455 120.642765,21.1455 C117.416882,21.1455 114.907765,23.0725588 114.459824,26.2984412 L126.602176,26.2984412 Z M131.082765,29.6590294 L114.459824,29.6590294 C114.907765,32.8852059 117.506294,34.9013824 120.866882,34.9013824 C123.196882,34.9013824 125.481882,33.8260882 126.557471,31.8993235 C127.722471,32.4369706 129.111294,33.0196176 130.321294,33.5572647 C128.483941,37.2310882 124.586,38.9337353 120.642765,38.9337353 C114.683941,38.9337353 109.889235,34.5875588 109.889235,27.9563824 C109.889235,21.3249118 114.683941,17.1131471 120.642765,17.1131471 C126.602176,17.1131471 131.127765,21.3249118 131.127765,27.9563824 C131.127765,28.4490294 131.127765,29.2107941 131.082765,29.6590294 Z M134.698235,38.4858824 L134.698235,17.5611765 L139.268529,17.5611765 L139.268529,38.4858824 L134.698235,38.4858824 Z M136.983235,7.77294118 C138.685882,7.77294118 140.030294,9.02764706 140.030294,10.6852941 C140.030294,12.3432353 138.685882,13.5979412 136.983235,13.5979412 C135.325588,13.5979412 133.891765,12.3432353 133.891765,10.6852941 C133.891765,9.02764706 135.325588,7.77294118 136.983235,7.77294118 Z M153.906029,21.5937059 C150.411029,21.5937059 147.633382,24.1028235 147.633382,27.9563529 C147.633382,31.8095882 150.411029,34.4534118 153.906029,34.4534118 C157.311324,34.4534118 160.313382,32.0337059 160.313382,27.9563529 C160.313382,23.8342941 157.0425,21.5937059 153.906029,21.5937059 Z M160.403088,35.439 C159.103676,37.6792941 156.191324,38.934 153.323676,38.934 C147.678088,38.934 142.883676,34.6325294 142.883676,28.0457647 C142.883676,21.3248824 147.678088,17.1131176 153.323676,17.1131176 C156.281029,17.1131176 159.103676,18.2781176 160.403088,20.5631176 L160.403088,8.68311765 L164.973382,8.68311765 L164.973382,38.4857647 L160.403088,38.4857647 L160.403088,35.439 Z M186.009059,27.9562941 C186.009059,24.1027647 183.141412,21.6386471 179.646412,21.6386471 C176.196706,21.6386471 173.329059,24.1027647 173.329059,27.9562941 C173.329059,31.8992353 176.196706,34.4533529 179.646412,34.4533529 C183.141412,34.4533529 186.009059,31.8992353 186.009059,27.9562941 Z M168.758471,27.9562941 C168.758471,21.3251176 173.732,17.1130588 179.646412,17.1130588 C185.605824,17.1130588 190.624059,21.3251176 190.624059,27.9562941 C190.624059,34.5874706 185.605824,38.9339412 179.646412,38.9339412 C173.732,38.9339412 168.758471,34.5874706 168.758471,27.9562941 Z" id="Combined-Shape"></path>
                    <path d="M26.3847647,12.9278824 L32.8750588,9.18082353 L39.1921176,12.8278824 C40.5115294,13.5896471 41.3312353,15.0093529 41.3312353,16.5325882 L41.3312353,21.5572941 L26.3847647,12.9278824 Z M41.3312353,33.1855294 C41.3312353,34.7090588 40.5115294,36.1284706 39.1921176,36.8902353 L34.8409412,39.4025882 L34.8409412,22.1437647 L41.3312353,25.8911176 L41.3312353,33.1855294 Z M24.7706471,45.2167059 C23.4512353,45.9784706 21.8121176,45.9784706 20.4927059,45.2167059 L16.1412353,42.7046471 L31.0877059,34.0752353 L31.0877059,41.5693529 L24.7706471,45.2167059 Z M6.07094118,36.8902353 C4.75152941,36.1284706 3.93182353,34.7090588 3.93182353,33.1855294 L3.93182353,28.1611176 L18.8785882,36.7905294 L12.3882941,40.5375882 L6.07094118,36.8902353 Z M3.93182353,16.5325882 C3.93182353,15.0093529 4.75152941,13.5896471 6.07094118,12.8278824 L10.4221176,10.3158235 L10.4221176,27.5743529 L3.93182353,23.8272941 L3.93182353,16.5325882 Z M14.1753529,22.1437647 L29.2112353,30.8249412 L22.6315294,34.6234706 L14.1753529,29.7414118 L14.1753529,22.1437647 Z M31.0877059,27.5743529 L16.0521176,18.8934706 L22.6315294,15.0946471 L31.0877059,19.977 L31.0877059,27.5743529 Z M20.4927059,4.50170588 C21.1521176,4.12082353 21.8921176,3.93023529 22.6315294,3.93023529 C23.3712353,3.93023529 24.1109412,4.12082353 24.7706471,4.50170588 L29.1218235,7.01376471 L14.1753529,15.6428824 L14.1753529,8.14876471 L20.4927059,4.50170588 Z M41.1582941,9.42288235 L26.7365294,1.09641176 C24.2044706,-0.365647059 21.0585882,-0.365352941 18.5265294,1.09641176 L4.10505882,9.42288235 C1.573,10.8846471 5.88235294e-05,13.6090588 5.88235294e-05,16.5325882 L5.88235294e-05,33.1855294 C5.88235294e-05,36.1090588 1.573,38.8337647 4.10505882,40.2955294 L18.5265294,48.6217059 C19.7927059,49.3528824 21.2121176,49.7181765 22.6315294,49.7181765 C24.0509412,49.7181765 25.4706471,49.3525882 26.7365294,48.6217059 L41.1582941,40.2955294 C43.6903529,38.8337647 45.2632941,36.1090588 45.2632941,33.1855294 L45.2632941,16.5325882 C45.2632941,13.6090588 43.6903529,10.8846471 41.1582941,9.42288235 L41.1582941,9.42288235 Z" id="Fill-11"></path>
                </g>
            </g>
        </g>
    </g>
</svg>